<?xml version="1.0" encoding="UTF-8" standalone="no"?>
<!DOCTYPE svg PUBLIC "-//W3C//DTD SVG 1.1//EN" "http://www.w3.org/Graphics/SVG/1.1/DTD/svg11.dtd">
<svg width="100%" height="100%" viewBox="0 0 761 352" version="1.1" xmlns="http://www.w3.org/2000/svg" xmlns:xlink="http://www.w3.org/1999/xlink" xml:space="preserve" xmlns:serif="http://www.serif.com/" style="fill-rule:evenodd;clip-rule:evenodd;stroke-linejoin:round;stroke-miterlimit:10;">
    <g transform="matrix(1,0,0,1,-312.139,-289.738)">
        <g transform="matrix(2.63133,0,0,2.63133,186.561,-872.11)">
            <path d="M76.905,479.531C80.757,473.69 96.04,468.597 96.04,468.597L104.925,486.365L109.706,473.381C109.706,473.381 113.662,482.057 113.125,489.099C112.589,496.141 111.404,504.977 106.286,504.131C101.169,503.285 93.149,502.102 87.156,497.3C81.163,492.497 73.053,485.372 76.906,479.531L76.905,479.531ZM49.57,510.968L48.886,521.219L64.604,539.67L76.903,535.57L75.906,522.584L64.604,510.968L63.918,525.319L49.569,510.968L49.57,510.968Z" style="fill:rgb(245,224,176);fill-rule:nonzero;"/>
        </g>
        <g transform="matrix(2.63133,0,0,2.63133,186.561,-872.11)">
            <path d="M83.427,494.849C83.427,494.849 73.734,496.581 70.442,501.683C67.151,506.784 64.289,511.931 64.289,511.931L77.959,525.602L80.009,509.884L76.903,539.67C76.903,539.67 74.93,550.797 82.743,551.571C90.557,552.345 105.979,550.204 105.979,550.204L123.067,545.421L124.434,531.753C124.434,531.753 120.645,527.521 118.278,519.449C115.91,511.376 113.175,502.764 113.175,502.764C113.175,502.764 108.603,507.968 97.54,505.531C91.275,504.15 83.427,494.849 83.427,494.849Z" style="fill:rgb(0,161,161);fill-rule:nonzero;"/>
        </g>
        <g transform="matrix(2.63133,0,0,2.63133,186.561,-872.11)">
            <path d="M111.753,502.764L113.803,512.332L126.791,542.404L137.042,541.037L124.743,521.902L111.753,502.764ZM85.79,552.655L85.784,567.004L97.402,560.853L102.186,549.919L85.789,552.655L85.79,552.655ZM105.603,551.286L117.226,548.555L105.603,562.903L105.603,551.286Z" style="fill:rgb(245,224,176);fill-rule:nonzero;"/>
        </g>
        <g transform="matrix(2.63133,0,0,2.63133,186.561,-872.11)">
            <path d="M109.022,476.114L126.107,475.431C126.107,475.431 104.858,462.302 105.605,456.296L90.57,461.763L94.54,454.384L77.588,456.979C77.588,456.979 74.038,460.754 70.068,467.913C66.098,475.073 61.808,481.381 59.134,484.315C56.459,487.249 64.599,497.98 64.599,497.98L81,494.563C81,494.563 66.6,485.495 74.166,477.478C81.732,469.462 98.312,465.674 104.925,466.547" style="fill:rgb(211,145,219);fill-rule:nonzero;"/>
        </g>
        <g transform="matrix(2.63133,0,0,2.63133,186.561,-872.11)">
            <path d="M152.127,542.291L163.749,539.508L169.898,548.555L157.598,548.555M147.71,553.357C147.71,553.357 158.545,560.568 164.08,556.864L158.232,569.14C158.232,569.14 153.517,556.421 147.71,553.357ZM185.708,549.85L194.473,536.99L206.166,538.744L194.476,551.603L185.708,549.85ZM196.225,559.2C196.225,559.2 213.548,556.499 215.516,552.773C217.485,549.046 210.728,561.237 204.997,562.125C199.266,563.013 196.225,559.2 196.225,559.2Z" style="fill:rgb(255,193,151);fill-rule:nonzero;"/>
        </g>
        <g transform="matrix(2.63133,0,0,2.63133,186.561,-872.11)">
            <path d="M238.311,465.09C238.311,465.09 246.394,461.071 252.342,455.74C258.29,450.408 264.033,441.711 264.033,441.711L271.63,446.385C271.63,446.385 276.438,438.471 286.832,442.88C297.226,447.289 309.823,455.352 310.798,462.17C311.773,468.988 314.958,475.523 319.566,477.368C324.174,479.213 310.213,489.058 310.213,489.058L295.595,485.549C295.595,485.549 304.567,471.043 300.272,465.09C295.977,459.137 287.033,462.512 287.033,462.512L262.891,454.384L259.359,461.001C259.359,461.001 241.816,469.173 238.311,465.09Z" style="fill:rgb(128,31,57);fill-rule:nonzero;"/>
        </g>
        <g transform="matrix(2.63133,0,0,2.63133,186.561,-872.11)">
            <path d="M278.649,460.416L262.279,478.537L259.354,462.167C259.354,462.167 254.79,480.79 256.436,485.551C258.082,490.312 254.365,496.733 265.784,495.486C277.203,494.239 284.709,493.691 289.166,487.887C293.623,482.083 298.808,478.171 296.769,471.522C294.73,464.873 289.654,460.697 278.649,460.416Z" style="fill:rgb(245,224,176);fill-rule:nonzero;"/>
        </g>
        <g transform="matrix(2.63133,0,0,2.63133,186.561,-872.11)">
            <path d="M231.883,525.884C231.883,525.884 240.727,520.445 242.407,513.609C244.088,506.772 257.021,493.15 257.021,493.15L240.067,532.314L228.376,540.497L231.883,525.884ZM297.349,489.056C297.349,489.056 287.181,505.325 295.598,510.102C304.014,514.878 312.549,507.179 312.549,507.179L325.996,503.087L334.762,472.691C334.762,472.691 316.477,495.504 310.211,494.904C303.946,494.303 303.224,489.67 297.349,489.056ZM251.173,546.343L254.68,557.449L264.033,559.787L265.2,548.679L251.173,546.343ZM272.799,549.848L273.968,564.461L289.752,567.97L286.83,549.85L272.799,549.848Z" style="fill:rgb(245,224,176);fill-rule:nonzero;"/>
        </g>
        <g transform="matrix(2.63133,0,0,2.63133,186.561,-872.11)">
            <path d="M257.021,491.981L240.651,531.729C240.651,531.729 239.398,543.5 242.99,544.589C246.581,545.678 252.829,547.831 266.956,548.096C281.083,548.361 289.867,550.217 296.767,549.85C303.667,549.482 310.213,541.666 310.213,541.666L313.716,510.099C313.716,510.099 292.504,512.714 292.093,506.594C291.682,500.475 297.351,487.305 297.351,487.305L288.586,484.967C288.586,484.967 284.581,503.72 270.465,502.503C256.349,501.286 257.021,491.981 257.021,491.981Z" style="fill:rgb(0,98,168);fill-rule:nonzero;"/>
        </g>
        <g transform="matrix(2.63133,0,0,2.63133,186.561,-872.11)">
            <path d="M300.406,480.688C299.434,480.827 298.472,480.954 297.5,481.094C297.21,481.138 297.018,481.429 297.062,481.719C297.107,482.009 297.366,482.201 297.656,482.156C298.626,481.998 299.593,481.846 300.562,481.688C300.841,481.638 301.035,481.375 301,481.094C300.958,480.819 300.681,480.645 300.406,480.688ZM74.188,489.406C73.913,489.362 73.638,489.538 73.594,489.812C73.549,490.087 73.726,490.362 74,490.406C74.826,490.55 75.674,490.701 76.5,490.844C76.528,490.849 76.556,490.851 76.584,490.851C76.84,490.851 77.059,490.66 77.094,490.406C77.142,490.115 76.946,489.835 76.656,489.781L74.187,489.406L74.188,489.406ZM262.75,455.375C261.724,455.387 260.701,455.545 260.031,456.031C258.759,456.956 258.411,458.669 258.219,460.125C258.048,461.415 258.058,462.743 257.875,464.031C257.774,464.747 257.548,465.49 257.344,466.156C256.506,468.889 255.261,471.541 254.656,474.344C254.212,476.406 254.333,478.443 254.281,480.531C254.234,482.417 253.84,484.336 254.156,486.219C254.437,487.892 255.334,489.228 256.188,490.656C257.111,492.2 258.081,493.795 259.5,494.938C261.638,496.658 263.681,496.497 266.281,496.406C268.222,496.338 270.118,496.191 272.031,495.844C279.113,494.56 285.833,491.101 291,486.094C293.563,483.61 295.755,480.765 297.031,477.406C298.231,474.25 298.756,470.403 296.781,467.438C296.164,466.511 295.303,465.752 294.5,465C293.37,463.936 292.192,462.924 290.969,461.969C289.968,461.193 288.95,460.45 287.875,459.781C287.376,459.471 286.875,459.154 286.312,458.969C285.575,458.726 284.798,458.731 284.031,458.688C283.785,458.674 283.059,458.518 283.281,458.625C285.664,459.769 283.277,458.644 282.562,458.562C282.288,458.529 282.035,458.726 282,459C281.969,459.276 282.193,459.531 282.469,459.562C283.806,460.111 283.945,460.263 284.344,460.5C283.152,459.981 281.972,459.423 280.781,458.906C276.028,456.842 270.707,455.931 265.562,455.531C264.828,455.474 263.776,455.363 262.75,455.375ZM263.406,456.5C264.742,456.525 266.081,456.617 267.406,456.781C272.004,457.351 276.562,458.185 280.812,460.094C282.641,460.915 284.426,461.922 286.375,462.438C286.987,462.599 287.684,462.711 288.312,462.781C288.672,462.822 289.691,463.05 289.375,462.875C287.209,461.676 289.249,462.767 290.438,462.844C292.072,464.123 293.627,465.501 295.094,466.969C295.426,467.3 295.678,467.61 295.938,468C297.724,470.687 297.176,474.219 296.094,477.062C294.725,480.66 292.211,483.637 289.375,486.188C284.128,490.907 277.495,494.053 270.5,495.031C268.873,495.259 267.231,495.301 265.594,495.375C263.716,495.46 262.053,495.483 260.469,494.344C258.774,493.125 257.773,491.247 256.719,489.5C256.053,488.396 255.403,487.323 255.188,486.031C254.886,484.221 255.297,482.376 255.344,480.562C255.396,478.542 255.255,476.557 255.688,474.562C256.289,471.79 257.514,469.14 258.344,466.438C258.568,465.708 258.827,464.959 258.938,464.188C259.161,462.627 259.106,461.021 259.406,459.469C259.585,458.542 259.955,457.063 261,456.688C261.74,456.422 262.642,456.486 263.406,456.5ZM283.188,459.625C282.969,459.493 283.713,459.673 283.969,459.688C284.644,459.726 285.349,459.724 286,459.938C286.332,460.046 286.626,460.281 286.938,460.469C287.241,460.645 287.426,460.834 288.125,461.156C288.423,461.354 288.708,461.575 289,461.781C288.754,461.746 288.624,461.771 288.438,461.75C287.555,461.645 286.685,461.446 285.844,461.156C285.734,461.119 285.64,461.04 285.531,461C285.708,461.109 285.755,461.186 286.5,461.219C287.719,461.273 284.232,460.256 283.188,459.625ZM105.781,466.625C104.68,466.647 103.56,466.829 102.844,466.906C98.752,467.347 94.639,468.131 90.875,469.844C90.452,470.036 90.011,470.196 89.594,470.406C89.776,470.313 89.964,470.184 89.938,469.969C89.903,469.695 89.649,469.497 89.375,469.531C87.677,470.262 87.202,470.607 86.969,470.781C87.374,470.712 87.786,470.649 88.188,470.625C88.406,470.612 89.038,470.494 88.844,470.594C87.294,471.387 88.089,471.028 88.844,470.75C87.924,471.212 87.016,471.707 86.031,472L86,472C86.834,471.984 84.255,472.858 83.562,473.5C83.335,473.711 84.192,473.474 84.5,473.438C85.042,473.373 85.63,473.241 86.156,473.094C87.973,472.587 89.607,471.59 91.312,470.812C95.252,469.016 99.672,468.196 103.969,467.844C104.359,467.812 104.734,467.803 105.125,467.781C105.929,467.736 107.281,467.548 108,468.094C108.871,468.755 109.033,470.138 109.156,471.125C109.302,472.289 109.28,473.463 109.438,474.625C109.532,475.319 109.777,476.028 109.969,476.688C110.676,479.116 111.707,481.484 112.219,483.969C112.588,485.765 112.447,487.556 112.5,489.375C112.547,491 112.912,492.627 112.656,494.25C112.441,495.615 111.699,496.757 111.031,497.938C110.241,499.333 109.424,500.703 108.156,501.719C106.72,502.87 105.035,502.687 103.312,502.625C101.703,502.567 100.116,502.427 98.532,502.125C92.256,500.93 86.421,497.555 82.125,492.844C80.327,490.872 78.816,488.709 77.906,486.188C76.986,483.639 76.505,480.483 78.031,478.062C78.511,477.301 79.215,476.652 79.844,476.031C80.772,475.112 81.742,474.236 82.75,473.406C82.761,473.397 82.77,473.384 82.781,473.375C84.138,472.767 84.801,472.414 85.031,472.25C84.809,472.292 84.587,472.35 84.375,472.375C84.292,472.385 84.26,472.384 84.125,472.406C84.54,472.101 84.945,471.783 85.375,471.5C85.671,471.305 86.045,471.015 86.406,470.875C86.281,470.895 86.305,470.953 85.969,470.969C84.931,471.017 87.869,470.145 88.75,469.594C88.928,469.483 88.334,469.613 88.125,469.625C87.907,469.638 87.686,469.637 87.469,469.656C87.025,469.695 86.581,469.759 86.156,469.906C84.792,470.381 83.273,471.68 82.156,472.594C80.7,473.785 79.326,475.104 78.031,476.469C77.701,476.817 77.444,477.125 77.187,477.531C75.614,480.024 75.894,483.183 76.75,485.875C77.785,489.134 79.75,491.917 82.125,494.344C86.769,499.09 92.949,502.368 99.531,503.344C100.948,503.554 102.354,503.587 103.781,503.656C105.47,503.738 107.014,503.722 108.469,502.75C110.039,501.7 111.026,500.044 111.938,498.438C112.572,497.32 113.257,496.264 113.562,495C114.013,493.134 113.616,491.227 113.562,489.344C113.521,487.858 113.626,486.355 113.438,484.875C113.066,481.956 111.783,479.178 110.969,476.375C110.794,475.775 110.586,475.11 110.5,474.469C110.309,473.049 110.354,471.632 110.094,470.219C109.897,469.15 109.529,467.943 108.625,467.25C107.96,466.74 106.883,466.603 105.781,466.625ZM86.406,470.875C86.566,470.85 86.838,470.879 86.969,470.781C86.803,470.81 86.627,470.789 86.469,470.844C86.449,470.851 86.427,470.867 86.406,470.875ZM86,472C85.335,472.031 85.304,472.046 85.062,472.219C85.338,472.165 85.62,472.134 85.875,472.062C85.92,472.05 85.955,472.013 86,472Z" style="fill:rgb(75,75,75);fill-rule:nonzero;"/>
        </g>
        <g transform="matrix(2.63133,0,0,2.63133,186.561,-872.11)">
            <path d="M336,471.875C335.034,471.466 333.948,472.401 333.281,472.969C331.749,474.273 330.406,475.856 329.094,477.375C325.787,481.202 322.658,485.157 319.156,488.812C317.299,490.752 315.315,492.717 313.031,494.156C312.404,494.551 311.733,494.911 311.031,495.156C308.383,496.081 307.543,494.6 305.781,492.781C304.547,491.508 303.271,490.15 301.719,489.25C300.608,488.606 299.315,488.235 298.094,487.875C295.99,487.255 293.828,486.814 291.688,486.344C291.651,486.335 291.613,486.331 291.575,486.331C291.344,486.331 291.143,486.493 291.094,486.719C291.085,486.756 291.081,486.794 291.081,486.832C291.081,487.063 291.243,487.264 291.469,487.312C294.097,487.89 296.769,488.415 299.312,489.312C300.068,489.579 300.799,489.819 301.469,490.25C303.217,491.374 304.641,493.014 306.062,494.5C306.48,494.937 306.9,495.43 307.406,495.781C308.598,496.607 310.054,496.556 311.375,496.094C312.149,495.823 312.871,495.436 313.562,495C316.246,493.31 318.539,490.962 320.688,488.656C323.882,485.229 326.813,481.574 329.875,478.031C331.153,476.552 332.445,475.021 333.938,473.75C334.203,473.524 335.175,472.653 335.594,472.812C336.091,473.002 335.734,474.456 335.656,474.75C335.158,476.626 334.508,478.479 333.875,480.312C331.933,485.94 329.869,491.535 328,497.188C327.585,498.441 327.243,499.693 327.031,501C326.999,501.2 327.028,501.424 327,501.625C326.911,502.255 326.507,502.787 326.062,503.219C324.998,504.253 323.602,504.934 322.25,505.5C320.566,506.205 318.797,506.727 317.031,507.188C315.994,507.458 314.957,507.694 313.906,507.906C313.583,507.971 313.064,507.973 312.906,508.344C312.761,508.685 312.831,509.172 312.812,509.5C312.785,509.984 312.747,510.484 312.719,510.969C312.599,513.022 312.499,515.072 312.375,517.125C312.018,523.052 311.67,528.985 311.219,534.906C311.031,537.366 310.891,539.842 310.5,542.281C310.494,542.319 309.933,542.848 309.844,542.938C309.306,543.477 308.731,543.968 308.156,544.469C306.748,545.707 305.288,546.885 303.781,548C302.973,548.592 302.178,549.101 301.25,549.469C298.363,550.612 295.081,550.639 292.031,550.625C289.659,550.614 287.265,550.663 284.906,550.375C281.514,549.961 278.199,549.044 274.812,548.594C271.138,548.105 267.431,548.57 263.75,548.219C261.223,547.978 258.785,547.249 256.344,546.594C253.454,545.818 250.594,545.436 247.625,545.125C246.07,544.962 244.137,545.204 242.969,543.938C241.35,542.183 242.541,539.056 242.469,536.969C242.392,534.766 241.5,532.705 241.094,530.562C240.742,528.71 240.838,526.78 240.719,524.906C240.7,524.614 240.449,524.419 240.156,524.438C239.865,524.456 239.64,524.709 239.656,525C239.779,526.919 239.702,528.884 240.062,530.781C240.459,532.865 241.331,534.857 241.406,537C241.495,539.511 240.232,542.538 242.188,544.656C243.58,546.165 245.633,545.96 247.5,546.156C250.414,546.462 253.226,546.864 256.062,547.625C258.561,548.295 261.069,549.035 263.656,549.281C267.323,549.631 270.997,549.137 274.656,549.625C278.047,550.077 281.385,550.993 284.781,551.406C287.6,551.749 290.477,551.72 293.312,551.688C296.088,551.656 299.012,551.505 301.625,550.469C303.228,549.833 304.557,548.739 305.906,547.688C306.766,547.02 307.61,546.332 308.438,545.625C309.265,544.916 310.094,544.168 310.844,543.375C311.064,543.142 311.455,542.79 311.531,542.469C311.854,541.103 311.894,539.579 312,538.188C312.122,536.584 312.26,534.979 312.375,533.375C312.669,529.28 312.906,525.161 313.156,521.062C313.335,518.131 313.517,515.213 313.688,512.281L313.844,509.562C313.856,509.347 313.863,509.152 313.875,508.938C313.895,508.934 313.917,508.941 313.938,508.938C314.001,508.925 314.062,508.919 314.125,508.906C314.277,508.875 314.41,508.844 314.562,508.812C314.75,508.773 314.938,508.729 315.125,508.688C315.343,508.639 315.564,508.613 315.781,508.562C316.293,508.444 316.803,508.32 317.312,508.188C320.431,507.373 324.415,506.273 326.781,503.969C328.079,502.704 327.952,501.617 328.312,499.969C328.592,498.691 328.965,497.491 329.375,496.25C331.254,490.565 333.362,484.952 335.281,479.281C335.489,478.667 335.707,478.055 335.906,477.438C336.015,477.102 336.146,476.682 336.25,476.344C336.588,475.246 337.587,472.547 336,471.875ZM81.594,494.5C78.833,495.139 75.778,495.625 73.25,496.969C71.424,497.939 70.04,499.759 68.687,501.25C67.225,502.862 65.855,504.441 64.937,506.438C62.429,511.892 63.127,518.404 62.937,524.281L62.781,524.125C61.922,523.265 61.154,522.339 60.375,521.406C57.827,518.354 55.416,515.197 52.781,512.219C52.366,511.749 51.955,511.274 51.531,510.812C51.14,510.386 50.036,510.002 49.688,510.594C49.553,510.821 49.535,511.409 49.5,511.594C49.47,511.751 49.441,511.906 49.406,512.062C49.235,512.791 49.027,513.511 48.781,514.219C47.993,516.559 47.305,518.804 48.031,521.25C48.192,521.792 48.727,522.316 49.063,522.75C49.694,523.566 50.354,524.351 51,525.156C53.239,527.947 55.51,530.705 57.781,533.469C58.399,534.221 59.006,534.999 59.625,535.75C60.101,536.329 60.585,536.891 61.063,537.469C61.632,538.158 62.18,538.843 62.75,539.531C62.852,539.654 63.522,540.535 63.656,540.562C64.421,540.722 64.457,540.527 65.281,540.188C65.777,539.983 66.281,539.759 66.781,539.562C68.461,538.9 70.14,538.284 71.875,537.781C72.267,537.668 72.667,537.567 73.063,537.469C73.539,537.35 74.588,536.98 75.063,537.281C76.206,538.007 76.964,540.101 77.437,541.25C78.541,543.928 79.387,546.722 80.625,549.344C81.222,550.608 81.978,552.217 83.25,552.969C84.221,553.543 85.47,553.315 86.531,553.219C87.164,553.161 87.872,553.038 88.5,552.938C91.659,552.434 94.73,551.477 97.938,551.312C101.103,551.15 104.262,551.467 107.406,550.906C110.563,550.343 113.52,549.086 116.719,548.688C117.76,548.558 118.828,548.391 119.875,548.312C121.469,548.193 123.087,548.147 124.094,546.719C125.476,544.759 124.49,542.266 124.562,540.094C124.627,538.175 125.381,536.371 125.719,534.5C126.027,532.79 125.926,531.008 126.031,529.281C126.031,529.274 126.031,529.267 126.031,529.26C126.031,528.968 125.791,528.728 125.499,528.728C125.223,528.728 124.99,528.943 124.969,529.219C124.867,530.903 124.956,532.645 124.656,534.312C124.31,536.239 123.565,538.056 123.5,540.031C123.44,541.86 124.371,544.46 123.219,546.094C122.42,547.226 121.023,547.187 119.781,547.281C118.431,547.384 117.058,547.553 115.719,547.75C112.812,548.179 110.102,549.359 107.219,549.875C104.122,550.429 101.026,550.12 97.906,550.281C94.339,550.466 90.904,551.608 87.375,552.062C86.4,552.183 85.419,552.246 84.437,552.25C84.205,552.249 83.978,552.183 83.781,552.062C82.715,551.429 82.053,549.944 81.562,548.906C81.307,548.361 81.068,547.809 80.844,547.25C79.872,544.861 79.108,542.39 78.063,540.031C77.54,538.853 76.821,537.058 75.593,536.375C74.492,535.762 72.66,536.472 71.593,536.781C69.828,537.294 68.085,537.919 66.375,538.594C65.741,538.844 65.129,539.112 64.5,539.375C64.368,539.43 64.225,539.475 64.094,539.531C60.446,535.303 56.957,530.898 53.438,526.562C52.326,525.193 51.211,523.827 50.125,522.438C49.882,522.126 49.049,521.172 49,520.969C48.794,520.118 48.635,519.256 48.719,518.375C48.875,516.741 49.509,515.239 50,513.688C50.198,513.064 50.378,512.424 50.5,511.781C50.505,511.756 50.538,511.584 50.563,511.438C50.61,511.463 50.672,511.477 50.719,511.5C50.757,511.519 50.759,511.534 50.812,511.562C51.6,512.486 52.46,513.36 53.25,514.281C55.665,517.096 57.905,520.052 60.313,522.875C61.052,523.742 61.797,524.752 62.719,525.438C63.067,525.696 63.622,525.836 63.875,525.406C63.929,525.31 63.961,525.204 63.969,525.094C64.007,524.437 64.04,523.782 64.062,523.125C64.085,522.463 64.089,521.788 64.094,521.125C64.114,518.194 64.002,515.259 64.375,512.344C64.7,509.806 65.441,507.302 66.813,505.125C67.775,503.598 69.033,502.324 70.25,501C71.271,499.888 72.36,498.574 73.719,497.844C74.539,497.403 75.521,497.118 76.406,496.844C78.176,496.294 80.008,495.886 81.812,495.469C82.038,495.421 82.201,495.219 82.201,494.988C82.201,494.95 82.197,494.912 82.188,494.875C82.139,494.649 81.938,494.487 81.707,494.487C81.669,494.487 81.631,494.491 81.594,494.5Z" style="fill:rgb(75,75,75);fill-rule:nonzero;"/>
        </g>
        <g transform="matrix(2.63133,0,0,2.63133,186.561,-872.11)">
            <path d="M256.406,492.094C253.239,495.061 250.444,498.328 247.781,501.75C246.727,503.105 245.501,504.436 244.656,505.938C243.235,508.463 242.599,511.348 241.562,514.031C240.935,515.655 240.132,517.168 239.094,518.562C236.434,522.137 232.928,524.959 230.531,528.75C229.503,530.377 229.238,532.354 228.812,534.188C228.723,534.572 228.682,534.994 228.5,535.344C228.126,536.064 226.827,537.077 227.812,537.938C228.858,538.85 230.409,538.734 231.688,538.906C232.669,539.038 233.615,539.314 234.594,539.469C236.105,539.707 237.597,539.78 239.125,539.75C239.422,539.735 239.658,539.485 239.656,539.188C239.654,538.913 239.427,538.687 239.152,538.687C239.143,538.687 239.134,538.688 239.125,538.688C237.301,538.729 235.478,538.572 233.688,538.219C232.777,538.038 231.924,537.873 231,537.781C230.613,537.741 230.228,537.689 229.844,537.625C229.526,537.573 229.203,537.506 228.906,537.375C228.757,537.309 228.646,537.188 228.5,537.125C228.509,537.115 228.523,537.104 228.531,537.094C228.534,537.082 228.525,537.083 228.531,537.062C228.906,536.632 229.416,536.061 229.562,535.531C229.86,534.455 230.059,533.368 230.312,532.281C230.753,530.396 231.608,528.828 232.781,527.281C234.961,524.408 237.755,522.087 239.906,519.188C240.998,517.716 241.84,516.118 242.5,514.406C243.516,511.769 244.139,508.921 245.531,506.438C246.348,504.981 247.542,503.689 248.562,502.375C251.19,498.993 253.966,495.775 257.094,492.844C257.297,492.654 257.311,492.332 257.125,492.125C256.935,491.921 256.613,491.907 256.406,492.094ZM111.031,499.719C110.937,499.809 110.884,499.933 110.884,500.063C110.884,500.192 110.937,500.316 111.031,500.406C113.708,503.052 116.082,505.973 118.312,509C119.183,510.181 120.184,511.325 120.875,512.625C122.067,514.868 122.603,517.412 123.469,519.781C124.097,521.5 124.911,523.093 126,524.562C127.774,526.957 130.01,528.956 131.75,531.375C132.754,532.771 133.505,534.17 133.875,535.844C134.018,536.492 134.107,537.133 134.25,537.781C134.342,538.199 134.417,538.642 134.594,539.031C134.753,539.383 135.078,539.772 135.344,540.094C135.356,540.122 135.356,540.148 135.375,540.188C135.37,540.19 135.38,540.215 135.375,540.219C135.283,540.279 135.195,540.359 135.094,540.406C134.844,540.513 134.581,540.587 134.312,540.625C133.994,540.68 133.626,540.686 133.312,540.719C132.612,540.792 132.623,540.794 131.938,540.938C131.329,541.065 130.738,541.211 130.125,541.312C128.895,541.517 127.682,541.59 126.438,541.562C126.144,541.556 125.881,541.769 125.875,542.062C125.872,542.36 126.108,542.61 126.406,542.625C128.032,542.664 129.657,542.518 131.25,542.188C131.855,542.061 132.2,541.926 132.781,541.844C133.893,541.686 135.235,541.794 136.125,540.969C136.989,540.167 135.907,539.289 135.562,538.594C135.35,538.165 135.191,537.061 135.094,536.594C134.815,535.256 134.526,533.846 133.812,532.656C131.875,529.424 129.078,526.94 126.844,523.938C125.811,522.55 125.033,521.062 124.438,519.438C123.553,517.023 123.001,514.44 121.781,512.156C121.063,510.812 120.027,509.597 119.125,508.375C116.861,505.308 114.464,502.4 111.75,499.719C111.552,499.524 111.229,499.524 111.031,499.719ZM287.438,547.531C287.172,547.455 286.89,547.61 286.812,547.875C285.462,552.82 285.593,557.858 285.469,562.938C285.467,563.236 285.703,563.486 286,563.5C286.291,563.5 286.531,563.26 286.531,562.969C286.646,557.976 286.456,553.018 287.781,548.156C287.857,547.891 287.703,547.609 287.438,547.531ZM85.219,549.5C84.948,549.573 84.781,549.851 84.844,550.125C85.974,554.501 85.809,558.956 85.906,563.438C85.921,563.735 86.171,563.971 86.469,563.969C86.762,563.962 86.975,563.699 86.969,563.406C86.862,558.843 86.966,554.329 85.813,549.875C85.743,549.606 85.487,549.431 85.219,549.5ZM267.969,547.531C267.705,547.619 267.569,547.924 267.656,548.188C269.519,553.807 272.095,559.061 272.188,565.094C272.19,565.369 272.418,565.595 272.693,565.595C272.702,565.595 272.71,565.594 272.719,565.594C273.01,565.593 273.25,565.353 273.25,565.062C273.224,563.551 273.138,562.112 272.844,560.625C271.973,556.226 270.002,552.113 268.594,547.875C268.506,547.611 268.232,547.444 267.969,547.531ZM101.844,549.5C101.578,549.424 101.297,549.579 101.219,549.844C99.589,555.016 97.341,559.789 97.25,565.312C97.25,565.321 97.249,565.329 97.249,565.338C97.249,565.614 97.474,565.841 97.75,565.844C98.043,565.848 98.308,565.637 98.313,565.344C98.39,559.999 100.578,555.176 102.156,550.156C102.24,549.891 102.109,549.583 101.844,549.5ZM264,546.094C263.979,546.091 263.958,546.09 263.937,546.09C263.685,546.09 263.469,546.28 263.438,546.531C262.769,551.295 262.814,556.106 262.75,560.906C262.767,561.185 263.001,561.405 263.281,561.405C263.561,561.405 263.795,561.185 263.812,560.906C263.868,556.151 263.779,551.409 264.438,546.688C264.473,546.407 264.279,546.144 264,546.094ZM105.188,548.219C104.914,548.253 104.716,548.507 104.75,548.781C105.312,553.027 105.235,557.321 105.281,561.594C105.285,561.887 105.551,562.097 105.844,562.094C106.137,562.09 106.347,561.856 106.344,561.562C106.289,557.248 106.321,552.942 105.75,548.656C105.715,548.382 105.462,548.185 105.188,548.219ZM249.812,545.781C249.613,545.974 249.588,546.3 249.781,546.5C252.083,548.882 253.327,551.709 254.281,554.844C254.575,555.808 255.155,557.057 255,558.125C254.873,559.005 253.974,559.795 253.469,560.469C253.293,560.704 253.359,561.043 253.594,561.219C253.683,561.291 253.794,561.33 253.908,561.33C254.068,561.33 254.218,561.254 254.312,561.125C254.952,560.268 255.861,559.416 256.031,558.312C256.222,557.075 255.633,555.696 255.281,554.562C254.263,551.282 252.911,548.277 250.5,545.781C250.41,545.687 250.286,545.634 250.156,545.634C250.026,545.634 249.902,545.687 249.812,545.781ZM117.344,547.938C117.255,547.853 117.137,547.806 117.015,547.806C116.877,547.806 116.746,547.865 116.656,547.969C114.574,550.241 113.426,552.917 112.562,555.844C112.253,556.893 111.745,558.127 111.906,559.25C112.048,560.238 112.821,560.999 113.375,561.781C113.545,562.02 113.886,562.076 114.125,561.906C114.265,561.813 114.348,561.655 114.348,561.487C114.348,561.38 114.314,561.275 114.25,561.188C113.817,560.578 113.079,559.872 112.969,559.094C112.834,558.138 113.307,557.043 113.562,556.156C114.365,553.373 115.396,550.816 117.375,548.656C117.561,548.45 117.547,548.127 117.344,547.938ZM287.656,565.469C287.417,565.606 287.332,565.916 287.469,566.156C287.989,567.119 288.461,568.066 288.844,569.094C289.096,569.77 289.297,570.424 289.469,571.125C289.553,571.47 289.611,571.81 289.688,572.156C289.741,572.401 290.323,573.675 290.25,573.812C290.023,574.238 288.743,573.848 288.469,573.781C287.943,573.654 287.789,573.609 287.25,573.562C286.595,573.512 285.938,573.48 285.281,573.469C284.239,573.435 283.197,573.445 282.156,573.5C278.35,573.721 274.525,574.292 270.719,573.781C268.881,573.535 267.144,572.451 265.438,571.812C265.381,571.79 265.32,571.779 265.259,571.779C265.043,571.779 264.849,571.919 264.781,572.125C264.679,572.4 264.788,572.71 265.062,572.812C266.858,573.482 268.665,574.581 270.594,574.844C275.177,575.469 279.728,574.49 284.312,574.469C284.953,574.466 285.579,574.504 286.219,574.531C286.716,574.553 287.201,574.533 287.688,574.625C288.676,574.813 290.594,575.59 291.188,574.219C291.511,573.471 290.926,572.774 290.719,572.094C290.488,571.339 290.392,570.571 290.156,569.812C289.705,568.361 289.064,566.99 288.344,565.656C288.206,565.416 287.896,565.332 287.656,565.469ZM85.063,565.625C84.814,565.499 84.505,565.597 84.375,565.844C83.758,567.049 83.228,568.261 82.844,569.562C82.642,570.245 82.541,570.945 82.344,571.625C82.164,572.248 81.687,572.881 81.969,573.562C82.491,574.826 84.127,574.15 85.031,573.969C85.438,573.887 85.868,573.894 86.281,573.875C86.825,573.85 87.361,573.81 87.906,573.812C91.835,573.832 95.658,574.667 99.594,574.156C101.251,573.941 102.787,572.912 104.312,572.312C104.585,572.208 104.726,571.899 104.625,571.625C104.545,571.43 104.354,571.302 104.144,571.302C104.073,571.302 104.003,571.316 103.938,571.344C102.51,571.907 101.024,572.893 99.468,573.094C96.208,573.514 93.006,573.074 89.75,572.875C88.574,572.8 87.396,572.789 86.219,572.844C85.703,572.869 85.333,572.871 84.844,572.969C84.667,573.004 84.487,573.049 84.313,573.094C84.133,573.14 83.038,573.507 82.875,573.188C82.817,573.074 83.331,571.898 83.375,571.688C83.44,571.376 83.49,571.06 83.563,570.75C83.708,570.121 83.879,569.546 84.093,568.938C84.418,568.019 84.838,567.178 85.281,566.312C85.406,566.063 85.308,565.755 85.062,565.625L85.063,565.625ZM265.281,563.531C265.015,563.455 264.734,563.61 264.656,563.875C264.511,564.392 264.537,565.145 264.219,565.594C263.96,565.959 263.529,566.158 263.156,566.406C262.213,567.036 261.19,567.566 260.156,568.031C259.33,568.403 258.432,568.836 257.531,569C256.272,569.229 254.956,569.157 253.688,569.094C252.154,569.018 250.628,568.899 249.094,568.844C248.796,568.842 248.546,569.078 248.531,569.375C248.521,569.668 248.769,569.896 249.062,569.906C251.19,569.979 253.308,570.195 255.438,570.188C256.299,570.184 257.222,570.189 258.062,569.969C259.673,569.546 261.287,568.712 262.719,567.875C263.479,567.431 264.501,566.924 265.031,566.188C265.448,565.61 265.437,564.818 265.625,564.156C265.701,563.89 265.546,563.609 265.281,563.531ZM104.094,563.906C103.882,563.957 103.731,564.149 103.731,564.367C103.731,564.412 103.737,564.457 103.75,564.5C103.912,565.1 103.887,565.814 104.25,566.344C104.821,567.178 106.28,567.93 107.156,568.406C108.126,568.934 109.181,569.485 110.25,569.781C111.211,570.048 112.299,569.993 113.281,569.969C114.845,569.93 116.406,569.807 117.969,569.75C118.26,569.732 118.485,569.479 118.469,569.188C118.451,568.897 118.197,568.671 117.906,568.688C116.347,568.747 114.81,568.892 113.25,568.938C112.371,568.963 111.396,569.01 110.531,568.781C109.542,568.519 108.523,567.983 107.625,567.5C106.786,567.055 105.991,566.532 105.25,565.938C105.191,565.894 105.138,565.841 105.094,565.781C104.823,565.375 104.842,564.712 104.719,564.25C104.641,563.985 104.36,563.83 104.094,563.906ZM207.375,532.469C206.639,532.927 207.079,534.801 206.969,535.5C206.899,535.939 206.691,536.368 206.531,536.781C206.313,537.345 206.062,537.978 205.656,538.438C204.755,539.457 202.879,539.185 201.688,539.156C201.396,539.156 201.156,539.396 201.156,539.688C201.156,539.696 201.155,539.705 201.155,539.713C201.155,539.989 201.38,540.216 201.656,540.219C203.348,540.258 205.491,540.433 206.625,538.906C207.211,538.116 207.845,536.613 208,535.656C208.098,535.051 208.023,534.42 208,533.812C207.998,533.751 208,533.687 208,533.625C208.192,533.764 208.393,533.898 208.562,534.062C208.806,534.299 208.994,534.565 209.188,534.844C209.466,535.245 209.745,535.794 209.969,536.25C210.3,536.924 210.603,537.593 210.969,538.25C211.507,539.217 212.055,540.203 212.562,541.188C212.69,541.434 212.972,541.533 213.219,541.406C213.465,541.276 213.563,540.968 213.438,540.719C212.763,539.408 212.009,538.143 211.375,536.812C210.966,535.955 210.577,535.065 210.031,534.281C209.801,533.95 209.568,533.628 209.281,533.344C208.989,533.055 208.641,532.81 208.312,532.562C208.043,532.36 207.673,532.283 207.375,532.469ZM151.875,536.5C151.649,536.445 151.409,536.491 151.219,536.625C150.913,536.838 150.588,537.061 150.312,537.312C150.045,537.557 149.812,537.835 149.594,538.125C149.388,538.398 149.208,538.707 149.031,539C148.692,539.562 148.438,540.173 148.125,540.75C147.586,541.744 146.956,542.666 146.406,543.656C146.271,543.899 146.382,544.209 146.625,544.344C146.865,544.481 147.175,544.396 147.312,544.156C147.865,543.164 148.488,542.214 149.031,541.219C149.338,540.656 149.574,540.048 149.906,539.5C150.233,538.961 150.524,538.489 151,538.062C151.142,537.935 151.31,537.826 151.469,537.719L151.469,537.781C151.458,538.094 151.443,538.406 151.438,538.719C151.418,539.894 152.116,541.561 152.938,542.406C154.052,543.553 155.911,543.407 157.375,543.375C157.375,543.375 157.376,543.375 157.376,543.375C157.667,543.375 157.906,543.136 157.906,542.845C157.906,542.845 157.906,542.844 157.906,542.844C157.906,542.553 157.666,542.313 157.375,542.312C156.277,542.338 154.533,542.565 153.688,541.688C153.233,541.216 152.609,539.862 152.5,539.219C152.375,538.482 152.699,537.647 152.406,536.938C152.314,536.712 152.114,536.548 151.875,536.5ZM215.375,552C215.214,552.093 215.114,552.265 215.114,552.451C215.114,552.545 215.139,552.638 215.188,552.719C216.692,555.346 218.856,557.032 221.594,558.312C223.541,559.224 225.784,559.744 227.281,561.375C227.579,561.7 227.76,562.13 228,562.5C228.543,563.334 229.054,564.188 229.531,565.062C230.429,566.715 231.265,568.397 232.25,570C232.994,571.211 233.839,572.566 235.156,573.219C235.405,573.341 235.721,573.249 235.844,573C235.966,572.751 235.843,572.435 235.594,572.312C234.251,571.655 233.429,570.071 232.719,568.844C231.395,566.558 230.316,564.153 228.875,561.938C228.603,561.52 228.368,561.054 228.031,560.688C226.395,558.908 224.177,558.37 222.062,557.375C219.525,556.181 217.487,554.627 216.094,552.188C216.001,552.026 215.829,551.926 215.642,551.926C215.548,551.926 215.456,551.952 215.375,552ZM148.75,553.219C148.666,553.163 148.567,553.133 148.466,553.133C148.289,553.133 148.125,553.225 148.031,553.375C146.588,555.605 144.914,556.76 142.5,557.812C140.565,558.656 138.47,559.144 136.938,560.688C136.329,561.3 135.9,562.084 135.438,562.812C134.305,564.596 133.386,566.486 132.219,568.25C131.6,569.184 130.931,570.173 129.906,570.688C129.659,570.813 129.531,571.127 129.656,571.375C129.782,571.623 130.096,571.719 130.344,571.594C131.727,570.886 132.6,569.533 133.406,568.25C134.63,566.302 135.679,564.261 137,562.375C137.221,562.06 137.386,561.679 137.656,561.406C139.067,559.984 141.148,559.556 142.938,558.781C145.546,557.652 147.343,556.372 148.906,553.969C149.065,553.72 148.995,553.384 148.75,553.219ZM213.094,561.156C212.82,561.107 212.554,561.289 212.5,561.562C211.756,565.611 211.454,569.712 211.156,573.812C211.161,574.101 211.4,574.337 211.69,574.337C211.956,574.337 212.183,574.138 212.219,573.875C212.506,569.812 212.766,565.762 213.5,561.75C213.549,561.476 213.367,561.21 213.094,561.156ZM150.812,561.094C150.539,561.148 150.357,561.414 150.406,561.688C151.051,565.143 151.327,568.593 151.594,572.094C151.616,572.386 151.864,572.616 152.156,572.594C152.447,572.576 152.673,572.322 152.656,572.031C152.378,568.494 152.063,564.99 151.406,561.5C151.352,561.227 151.086,561.045 150.812,561.094ZM205.031,559.781C204.774,559.885 204.648,560.181 204.75,560.438C206.548,565.091 208.781,569.562 209.25,574.594C209.269,574.858 209.492,575.065 209.757,575.065C209.775,575.065 209.794,575.064 209.812,575.062C210.104,575.035 210.34,574.792 210.312,574.5C209.822,569.361 207.528,564.813 205.688,560.062C205.584,559.806 205.288,559.679 205.031,559.781Z" style="fill:rgb(75,75,75);fill-rule:nonzero;"/>
        </g>
        <g transform="matrix(2.63133,0,0,2.63133,186.561,-872.11)">
            <path d="M154.281,560.031C154.024,559.929 153.728,560.056 153.625,560.312C151.916,564.396 149.773,568.28 149.312,572.75C149.283,573.042 149.521,573.314 149.812,573.344C149.83,573.346 149.848,573.347 149.866,573.347C150.132,573.347 150.355,573.14 150.375,572.875C150.813,568.522 152.902,564.666 154.562,560.688C154.665,560.431 154.538,560.134 154.281,560.031ZM194.438,562.031C194.155,561.956 193.86,562.124 193.781,562.406C193.705,562.689 193.874,562.984 194.156,563.062C197.587,564.01 201.023,564.829 204.531,565.438C204.559,565.443 204.587,565.446 204.616,565.446C204.855,565.446 205.06,565.268 205.094,565.031C205.099,565.003 205.102,564.975 205.102,564.946C205.102,564.707 204.924,564.503 204.688,564.469C201.213,563.861 197.833,562.977 194.438,562.031ZM164.094,561.969C159.328,563.012 161.47,562.586 159.344,563.031C158.28,563.254 161.457,562.538 162.531,562.375C163.066,562.294 161.494,562.654 160.969,562.781C159.978,563.021 158.779,563.295 157.781,563.5C157.249,563.609 155.66,563.939 156.188,563.812C158.819,563.181 156.182,563.8 154.562,564.062C154.326,564.096 154.148,564.301 154.148,564.54C154.148,564.568 154.151,564.597 154.156,564.625C154.2,564.899 154.445,565.107 154.719,565.062C159.536,564.037 157.425,564.474 159.562,564.031C160.631,563.81 157.422,564.472 156.375,564.781C155.846,564.937 157.459,564.606 158,564.5C159.037,564.296 160.19,564.023 161.219,563.781C161.749,563.657 163.316,563.302 162.781,563.406C160.09,563.931 162.8,563.402 164.375,563C164.657,562.922 164.826,562.627 164.75,562.344C164.672,562.062 164.377,561.893 164.094,561.969Z" style="fill:rgb(75,75,75);fill-rule:nonzero;"/>
        </g>
        <g transform="matrix(2.63133,0,0,2.63133,186.561,-872.11)">
            <path d="M197.281,557.406C197.016,557.484 196.861,557.766 196.938,558.031C198.039,561.585 198.431,565.254 198.875,568.938C198.911,569.229 199.178,569.439 199.469,569.406C199.76,569.37 199.971,569.103 199.938,568.812C199.478,565.068 199.03,561.361 197.906,557.75C197.828,557.485 197.547,557.33 197.281,557.406ZM161.5,558C161.235,557.91 160.942,558.05 160.844,558.312C159.898,563.081 160.328,560.983 159.906,563.094C159.642,564.416 160.406,560.429 160.594,559.094C160.632,558.821 160.418,559.64 160.344,559.906C160.204,560.407 160.081,560.992 159.969,561.5C159.735,562.556 159.536,563.619 159.375,564.688C159.296,565.217 159.036,566.803 159.156,566.281C159.763,563.641 159.179,566.258 158.969,567.844C158.931,568.134 159.115,568.431 159.406,568.469C159.697,568.502 159.964,568.291 160,568C160.896,563.323 160.548,565.131 160.906,563.312C161.11,562.276 160.539,565.399 160.219,566.406C160.058,566.913 160.363,565.37 160.438,564.844C160.623,563.535 160.815,562.223 161.125,560.938C161.187,560.681 161.243,560.411 161.312,560.156C161.382,559.902 161.606,559.146 161.562,559.406C161.081,562.275 161.557,559.42 161.812,558.656C161.902,558.391 161.763,558.098 161.5,558ZM193.281,555.031C193,555.012 192.75,555.22 192.719,555.5C192.216,561.126 194.252,566.463 195.688,571.812C195.766,572.094 196.061,572.263 196.344,572.188C196.626,572.109 196.795,571.814 196.719,571.531C195.31,566.31 193.229,561.091 193.719,555.594C193.743,555.317 193.558,555.056 193.281,555.031ZM165.188,555.969C164.911,555.995 164.692,556.224 164.719,556.5C165.174,561.235 163.238,565.728 161.938,570.188C161.862,570.47 162.031,570.765 162.312,570.844C162.364,570.861 162.417,570.869 162.471,570.869C162.7,570.869 162.903,570.719 162.969,570.5C164.301,565.902 166.19,561.281 165.719,556.406C165.701,556.159 165.493,555.966 165.245,555.966C165.226,555.966 165.207,555.967 165.188,555.969ZM219.969,563.594C219.834,563.684 219.754,563.836 219.754,563.998C219.754,564.1 219.785,564.198 219.844,564.281C220.703,565.629 220.467,565.229 220.719,565.625C220.453,565.166 221.305,566.492 221.594,566.938C222.169,567.824 222.722,568.728 223.281,569.625C223.56,570.073 224.412,571.411 224.125,570.969C222.683,568.749 224.106,570.962 224.938,572.312C225.092,572.562 225.438,572.654 225.688,572.5C225.937,572.346 225.998,572 225.844,571.75C223.248,567.733 224.403,569.537 223.25,567.75C222.672,566.854 224.42,569.533 225.031,570.406C225.335,570.84 224.471,569.51 224.188,569.062C223.619,568.164 223.024,567.263 222.438,566.375C222.143,565.929 221.277,564.611 221.562,565.062C222.983,567.307 221.547,565.045 220.656,563.719C220.566,563.584 220.414,563.504 220.252,563.504C220.15,563.504 220.052,563.535 219.969,563.594ZM144.469,563.188C144.386,563.129 144.287,563.098 144.186,563.098C144.024,563.098 143.872,563.178 143.781,563.312C141.369,566.767 142.444,565.217 141.375,566.75C140.84,567.517 142.433,565.225 142.938,564.438C143.192,564.041 142.399,565.21 142.125,565.594C141.581,566.356 141.029,567.133 140.5,567.906C140.237,568.291 139.448,569.442 139.719,569.062C141.079,567.154 139.713,569.059 138.938,570.219C138.882,570.303 138.852,570.402 138.852,570.503C138.852,570.68 138.944,570.844 139.094,570.938C139.338,571.1 139.681,571.057 139.844,570.812C142.222,567.359 141.155,568.878 142.219,567.344C142.75,566.577 141.148,568.906 140.594,569.656C140.318,570.029 141.116,568.853 141.375,568.469C141.894,567.697 142.404,566.95 142.938,566.188C143.206,565.804 144.011,564.643 143.75,565.031C142.452,566.961 143.769,565.048 144.594,563.906C144.752,563.674 144.696,563.353 144.469,563.188ZM196,531.594C195.227,531.504 194.518,532.015 194.031,532.562C193.138,533.567 193.143,534.504 192.938,535.75C192.844,536.319 192.65,536.901 192.438,537.438C192.033,538.457 191.261,539.27 190.594,540.125C190.415,540.357 190.458,540.694 190.688,540.875C190.919,541.055 191.257,541.013 191.438,540.781C192.272,539.709 193.126,538.737 193.562,537.438C193.728,536.944 193.916,536.421 194,535.906C194.084,535.387 194.058,534.856 194.188,534.344C194.505,533.091 195.371,532.463 196.594,532.75C196.826,532.805 197.059,532.881 197.281,532.969C197.721,533.142 198.219,533.418 198.625,533.656C199.257,534.028 199.905,534.414 200.5,534.844C201.428,535.514 202.228,536.347 203.094,537.094C203.304,537.275 203.6,537.241 203.781,537.031C203.963,536.821 203.96,536.494 203.75,536.312C202.671,535.38 201.67,534.374 200.469,533.594C199.575,533.014 198.651,532.394 197.656,532C197.005,531.742 196.694,531.674 196,531.594ZM162.969,535.812C162.631,535.787 162.153,535.875 161.875,535.938C161.367,536.058 160.874,536.237 160.406,536.469C159.753,536.78 159.12,537.159 158.5,537.531C157.392,538.197 156.443,539.071 155.438,539.875C155.221,540.048 155.202,540.377 155.375,540.594C155.548,540.811 155.846,540.83 156.062,540.656C157.032,539.881 157.961,539.044 159.031,538.406C159.625,538.052 160.218,537.67 160.844,537.375C161.243,537.182 161.662,537.036 162.094,536.938C163.118,536.715 164.017,537.199 164.312,538.281C164.431,538.717 164.422,539.183 164.5,539.625C164.589,540.134 164.751,540.612 164.938,541.094C165.349,542.158 166.15,542.981 166.875,543.844C166.976,543.953 167.118,544.016 167.267,544.016C167.559,544.016 167.8,543.775 167.8,543.483C167.8,543.364 167.761,543.249 167.688,543.156C167.078,542.433 166.378,541.756 166,540.875C165.277,539.188 165.702,537.665 164.156,536.344C163.828,536.064 163.402,535.846 162.969,535.812ZM215.562,540.906C215.288,540.941 215.091,541.195 215.125,541.469C215.459,544.017 215.5,546.735 215.188,549.281C215.08,550.155 214.957,551.274 214.438,552.031C214.099,552.525 213.482,552.883 212.969,553.156C211.861,553.746 210.645,554.111 209.438,554.438C205.119,555.607 200.605,556.052 196.156,556.406C195.892,556.426 195.685,556.649 195.685,556.914C195.685,556.932 195.686,556.951 195.688,556.969C195.711,557.261 195.958,557.461 196.25,557.438C201.04,557.052 205.921,556.642 210.531,555.219C212.117,554.729 214.276,554.064 215.281,552.625C216.114,551.434 216.218,549.626 216.312,548.25C216.469,545.967 216.423,543.616 216.125,541.344C216.09,541.07 215.836,540.872 215.562,540.906Z" style="fill:rgb(75,75,75);fill-rule:nonzero;"/>
        </g>
        <g transform="matrix(2.63133,0,0,2.63133,186.561,-872.11)">
            <path d="M144.469,543.812C144.195,543.779 143.941,543.976 143.906,544.25C143.585,546.515 143.547,548.955 143.844,551.219C143.964,552.14 144.139,553.232 144.719,554C145.76,555.379 148.317,556.065 149.906,556.469C153.987,557.507 158.217,557.875 162.406,558.188C162.704,558.206 162.967,557.985 163,557.688C163.017,557.397 162.791,557.143 162.5,557.125C158.371,556.821 154.181,556.477 150.156,555.469C148.87,555.147 147.558,554.739 146.406,554.062C146.107,553.886 145.743,553.661 145.531,553.375C144.892,552.511 144.826,551.127 144.75,550.125C144.607,548.229 144.639,546.261 144.906,544.375C144.94,544.101 144.743,543.847 144.469,543.812ZM264.562,442.688C264.475,442.624 264.37,442.59 264.263,442.59C264.095,442.59 263.938,442.673 263.844,442.812C261.794,445.773 259.876,448.877 257.5,451.594C255.846,453.485 253.899,455.066 251.938,456.625C250.933,457.423 249.938,458.238 248.906,459C247.165,460.286 245.249,461.087 243.281,461.938C242.442,462.3 241.62,462.733 240.781,463.094C240.096,463.388 238.61,463.815 238.719,464.812C238.791,465.478 239.376,465.778 239.969,465.875C240.603,465.979 241.271,465.85 241.906,465.812C242.511,465.777 243.116,465.835 243.719,465.844C244.147,465.85 244.603,465.855 245.031,465.844C245.457,465.832 245.856,465.81 246.281,465.781C246.704,465.753 247.141,465.734 247.562,465.688C248.401,465.59 249.235,465.455 250.062,465.281C252.505,464.79 254.763,463.958 256.969,462.812C257.215,462.682 257.313,462.374 257.188,462.125C257.057,461.879 256.749,461.781 256.5,461.906C254.014,463.198 251.431,464.071 248.656,464.5C247.446,464.692 246.225,464.807 245,464.844C243.734,464.877 242.481,464.745 241.219,464.844C240.742,464.881 240.278,464.9 239.875,464.688C239.966,464.623 240.057,464.551 240.156,464.5C240.405,464.371 240.68,464.264 240.938,464.156C241.872,463.765 242.756,463.276 243.688,462.875C245.244,462.206 246.838,461.621 248.281,460.719C249.136,460.185 249.928,459.527 250.719,458.906C253.067,457.062 255.473,455.268 257.531,453.094C260.295,450.175 262.438,446.698 264.719,443.406C264.886,443.165 264.804,442.855 264.562,442.688ZM104.688,455.25C104.537,455.343 104.445,455.508 104.445,455.685C104.445,455.786 104.475,455.885 104.531,455.969C106.474,458.924 108.283,462.045 110.656,464.688C112.551,466.797 114.828,468.534 117,470.344C118.898,471.926 120.886,472.714 123.062,473.75C123.74,474.072 124.381,474.435 125.062,474.75C125.234,474.829 125.482,474.918 125.656,475.031C125.674,475.043 125.697,475.038 125.719,475.062C125.561,475.148 125.504,475.219 125.156,475.219C124.624,475.218 124.097,475.107 123.562,475.125C123.204,475.137 122.827,475.151 122.469,475.156C121.75,475.168 121.092,475.175 120.375,475.125C119.335,475.05 118.301,474.904 117.281,474.688C115.275,474.263 113.419,473.514 111.625,472.531C111.382,472.398 111.102,472.507 110.969,472.75C110.926,472.823 110.903,472.905 110.903,472.99C110.903,473.165 111.001,473.325 111.156,473.406C115.044,475.536 119.191,476.302 123.594,476.156C124.443,476.128 125.538,476.498 126.312,476.031C126.727,475.781 126.935,475.308 126.781,474.844C126.515,474.037 125.305,473.743 124.656,473.406C122.462,472.267 120.092,471.47 118.125,469.938C115.552,467.932 112.927,465.793 110.844,463.281C108.81,460.828 107.15,458.063 105.406,455.406C105.313,455.256 105.148,455.164 104.971,455.164C104.871,455.164 104.772,455.194 104.688,455.25ZM283.938,442.094C282.636,442.033 281.332,442.044 280.031,442.125C278.266,442.233 276.482,442.314 274.781,442.844C273.32,443.299 272.027,444.089 270.812,445C270.593,445.174 270.551,445.495 270.719,445.719C270.893,445.938 271.214,445.98 271.438,445.812C272.559,444.971 273.712,444.233 275.062,443.812C277.024,443.203 279.154,443.169 281.188,443.062C292.057,442.491 301.762,449.483 307.406,458.375C308.499,460.104 309.42,461.935 310.156,463.844C311.337,466.879 312.18,470.096 313.812,472.938C314.422,473.999 315.153,475.106 316.094,475.906C317.289,476.922 318.892,477.568 319.906,478.781C320.118,479.034 320.235,479.343 320.406,479.625C320.591,479.929 320.063,480.696 319.938,480.875C319.375,481.676 318.671,482.329 317.938,482.969C315.869,484.774 313.55,486.336 311.219,487.781C310.491,488.232 309.795,489.016 308.906,489.094C308.258,489.15 307.59,488.505 307.062,488.25C306.335,487.898 305.492,487.719 304.719,487.5C301.629,486.625 298.471,486.005 295.344,485.281C295.058,485.215 294.785,485.37 294.719,485.656C294.653,485.942 294.839,486.246 295.125,486.312C298.537,487.102 301.99,487.76 305.344,488.781C305.705,488.891 306.222,489.037 306.594,489.219C307.361,489.594 308.085,490.203 309,490.125C310.2,490.023 311.142,489.087 312.125,488.469C314.574,486.928 316.999,485.284 319.125,483.312C320.076,482.431 321.591,481.083 321.469,479.625C321.386,478.645 320.481,477.821 319.781,477.25C318.825,476.47 317.725,475.923 316.781,475.125C315.401,473.958 314.407,471.907 313.688,470.281C312.704,468.059 312.008,465.731 311.125,463.469C310.352,461.495 309.389,459.6 308.25,457.812C303.629,450.55 296.37,444.407 287.812,442.562C286.522,442.284 285.23,442.155 283.938,442.094ZM90.594,454.688C80.798,454.145 72.272,460.813 67.406,468.875C66.425,470.492 65.598,472.197 64.937,473.969C64.06,476.338 63.381,478.768 62.313,481.062C61.765,482.238 61.143,483.559 60.156,484.438C58.811,485.636 57.078,486.325 56.25,488.031C56.18,488.176 56.142,488.34 56.125,488.5C55.985,489.783 57.306,491.043 58.125,491.844C60.014,493.691 62.23,495.245 64.438,496.688C65.219,497.198 65.864,497.912 66.844,498C67.654,498.073 68.27,497.503 68.938,497.156C69.504,496.862 70.138,496.715 70.75,496.531C73.363,495.746 76.07,495.209 78.719,494.562C78.948,494.51 79.112,494.305 79.112,494.07C79.112,494.026 79.106,493.981 79.094,493.938C79.02,493.65 78.729,493.469 78.438,493.531C75.77,494.183 73.068,494.74 70.438,495.531C69.764,495.734 69.095,495.901 68.468,496.219C68.053,496.43 67.464,497.018 66.938,496.969C66.123,496.893 65.38,496.032 64.718,495.594C62.674,494.238 60.634,492.811 58.875,491.094C58.259,490.493 57.189,489.548 57.187,488.594C57.187,488.286 57.433,488.022 57.625,487.781C58.136,487.139 58.87,486.687 59.531,486.219C60.135,485.791 60.745,485.359 61.25,484.812C62.35,483.623 63.131,481.979 63.75,480.5C64.594,478.483 65.15,476.362 65.906,474.312C66.542,472.606 67.337,470.963 68.281,469.406C71.999,463.229 77.911,457.761 85.094,456.125C87.208,455.643 89.315,455.612 91.469,455.75C92.897,455.842 94.379,455.894 95.75,456.344C96.902,456.721 97.87,457.38 98.813,458.125C99.03,458.297 99.359,458.28 99.531,458.062C99.698,457.838 99.656,457.517 99.437,457.344C98.402,456.524 97.329,455.822 96.063,455.406C94.319,454.833 92.409,454.788 90.593,454.688L90.594,454.688ZM80.344,510.156C80.301,510.143 80.255,510.137 80.21,510.137C79.992,510.137 79.801,510.288 79.75,510.5C79.021,513.294 78.585,516.135 78.25,519C78.05,520.716 77.912,522.452 77.625,524.156C77.25,526.377 76.551,528.514 75.875,530.656C75.485,531.894 75.121,533.131 74.75,534.375C74.702,534.536 74.608,534.685 74.5,534.812C73.597,535.884 72.016,536.494 70.781,537.062C69.126,537.824 67.469,538.489 65.875,539.375C65.497,539.585 65.055,539.759 64.719,540.031C64.282,540.386 63.949,540.841 63.563,541.25C63.473,541.348 63.423,541.476 63.423,541.61C63.423,541.9 63.662,542.14 63.953,542.14C64.101,542.14 64.243,542.078 64.343,541.969C64.696,541.591 65.007,541.171 65.406,540.844C65.996,540.361 66.724,540.09 67.406,539.75C68.867,539.022 70.402,538.423 71.875,537.719C73.066,537.15 74.445,536.537 75.313,535.5C75.917,534.776 76.027,533.679 76.281,532.844C76.662,531.592 77.086,530.345 77.469,529.094C77.947,527.528 78.388,525.93 78.656,524.312C78.942,522.591 79.049,520.858 79.25,519.125C79.577,516.306 80.002,513.531 80.719,510.781C80.782,510.507 80.615,510.229 80.344,510.156ZM249.156,513.188C248.902,513.076 248.612,513.215 248.5,513.469C246.728,517.49 244.319,521.177 242.531,525.188C241.995,526.391 241.427,527.639 241.156,528.938C240.963,529.863 241.103,530.84 240.625,531.688C239.859,533.046 238.643,534.152 237.594,535.281C236.862,536.058 236.183,536.883 235.562,537.75C235.393,537.991 235.45,538.327 235.688,538.5C235.927,538.669 236.268,538.615 236.438,538.375C237.963,536.21 240.255,534.519 241.531,532.219C242.073,531.243 241.972,530.21 242.188,529.156C242.439,527.929 242.967,526.731 243.469,525.594C245.243,521.577 247.636,517.897 249.406,513.875C249.518,513.621 249.41,513.299 249.156,513.188ZM117.844,518.625C117.585,518.743 117.461,519.046 117.562,519.312C119.068,522.92 121.148,526.24 122.656,529.844C123.085,530.867 123.506,531.934 123.719,533.031C123.921,534.073 123.83,535.066 124.406,536.031C125.57,537.981 127.364,539.457 128.625,541.344C128.788,541.587 129.131,541.632 129.375,541.469C129.525,541.375 129.617,541.211 129.617,541.034C129.617,540.933 129.587,540.834 129.531,540.75C128.275,538.877 126.49,537.39 125.312,535.469C124.816,534.659 124.927,533.737 124.75,532.844C124.519,531.678 124.054,530.557 123.594,529.469C122.071,525.871 120.007,522.513 118.5,518.906C118.397,518.65 118.101,518.523 117.844,518.625Z" style="fill:rgb(75,75,75);fill-rule:nonzero;"/>
        </g>
        <g transform="matrix(2.63133,0,0,2.63133,186.561,-872.11)">
            <path d="M227.781,527.844C227.501,527.759 227.21,527.938 227.125,528.219C227.108,528.27 227.1,528.324 227.1,528.378C227.1,528.606 227.251,528.809 227.469,528.875C228.697,529.247 229.939,529.809 231.25,529.75C232.034,529.715 232.992,529.308 233.781,529.562C236.558,530.457 238.985,532.019 241.531,533.406C241.775,533.539 242.086,533.431 242.219,533.188C242.352,532.944 242.244,532.633 242,532.5C239.403,531.082 236.929,529.478 234.094,528.562C233.133,528.252 232.151,528.674 231.188,528.719C230.017,528.774 228.877,528.177 227.781,527.844ZM137.188,532.438C136.163,532.726 135.084,533.234 134,533.188C133.105,533.149 132.206,532.795 131.312,533.062C128.7,533.844 126.388,535.246 123.969,536.469C123.802,536.548 123.695,536.718 123.695,536.902C123.695,536.98 123.714,537.056 123.75,537.125C123.829,537.292 123.999,537.399 124.183,537.399C124.261,537.399 124.337,537.38 124.406,537.344C126.775,536.149 129.036,534.824 131.594,534.062C132.511,533.79 133.595,534.295 134.531,534.219C135.538,534.137 136.504,533.739 137.469,533.469C137.751,533.39 137.92,533.095 137.844,532.812C137.766,532.53 137.47,532.362 137.188,532.438Z" style="fill:rgb(75,75,75);fill-rule:nonzero;"/>
        </g>
        <g transform="matrix(2.63133,0,0,2.63133,186.561,-872.11)">
            <path d="M136.062,531.812C135.146,532.107 134.174,532.643 133.188,532.594C132.35,532.552 131.491,532.185 130.656,532.469C128.219,533.298 126.122,534.756 123.906,536.031C123.666,536.169 123.582,536.479 123.719,536.719C123.857,536.959 124.166,537.013 124.406,536.875C126.569,535.632 128.623,534.277 131,533.469C131.814,533.192 132.819,533.702 133.656,533.625C134.595,533.539 135.486,533.127 136.375,532.844C136.654,532.745 136.808,532.439 136.719,532.156C136.653,531.937 136.45,531.787 136.221,531.787C136.167,531.787 136.114,531.795 136.062,531.812ZM241.656,532.469C241.384,532.522 241.228,532.79 241.281,533.062C241.396,533.641 242.081,534.898 241.938,535.406C241.716,536.188 239.902,537.186 239.219,537.531C238.327,537.973 237.409,538.36 236.469,538.688C236.164,538.796 235.854,538.898 235.531,538.938C234.464,539.067 233.348,538.843 232.312,538.625C231.142,538.378 229.972,538.074 228.812,537.781C228.528,537.71 228.259,537.903 228.188,538.188C228.176,538.231 228.17,538.276 228.17,538.321C228.17,538.556 228.334,538.76 228.562,538.812C230.715,539.353 233.419,540.298 235.688,540C236.285,539.921 236.849,539.65 237.406,539.438C238.372,539.069 239.319,538.666 240.219,538.156C241.079,537.668 242.632,536.697 242.906,535.688C243.171,534.715 242.429,533.766 242.25,532.844C242.196,532.571 241.929,532.415 241.656,532.469Z" style="fill:rgb(75,75,75);fill-rule:nonzero;"/>
        </g>
        <g transform="matrix(2.63133,0,0,2.63133,186.561,-872.11)">
            <path d="M124.312,536.406C124.041,536.348 123.745,536.51 123.688,536.781C123.517,537.596 122.839,538.408 123.094,539.281C123.391,540.302 125.218,541.274 126.125,541.688C127.209,542.182 128.391,542.721 129.562,542.969C130.495,543.166 131.546,543.019 132.469,542.875C133.815,542.665 135.143,542.339 136.469,542.031C136.754,541.965 136.91,541.661 136.844,541.375C136.792,541.146 136.586,540.982 136.352,540.982C136.307,540.982 136.262,540.988 136.219,541C134.701,541.355 133.175,541.717 131.625,541.906C131.033,541.978 130.376,542.087 129.781,541.969C128.69,541.751 127.573,541.204 126.562,540.75C125.981,540.489 124.264,539.64 124.062,539C123.95,538.643 124.594,537.435 124.688,537C124.697,536.963 124.701,536.926 124.701,536.888C124.701,536.657 124.538,536.455 124.312,536.406Z" style="fill:rgb(75,75,75);fill-rule:nonzero;"/>
        </g>
        <g transform="matrix(2.63133,0,0,2.63133,186.561,-872.11)">
            <path d="M124.25,535.969C123.976,535.92 123.71,536.102 123.656,536.375C123.502,537.212 122.897,538.026 123.125,538.906C123.39,539.932 125.018,540.976 125.906,541.438C126.894,541.951 128.005,542.519 129.094,542.781C129.957,542.989 130.929,542.808 131.781,542.656C133.023,542.435 134.22,542.104 135.438,541.781C135.72,541.703 135.888,541.407 135.812,541.125C135.76,540.896 135.555,540.732 135.32,540.732C135.276,540.732 135.231,540.738 135.188,540.75C133.801,541.119 132.393,541.521 130.969,541.719C130.442,541.792 129.842,541.87 129.312,541.75C128.313,541.524 127.282,540.995 126.375,540.531C125.796,540.236 124.271,539.319 124.094,538.656C123.97,538.195 124.558,537.054 124.656,536.531C124.707,536.258 124.523,536.02 124.25,535.969ZM235.75,536.281C234.4,537.012 233.501,538.301 232.594,539.5C231.425,541.045 230.251,542.568 228.875,543.938C225.25,547.546 220.685,549.632 215.75,550.781C215.521,550.833 215.357,551.039 215.357,551.273C215.357,551.318 215.363,551.363 215.375,551.406C215.425,551.649 215.641,551.824 215.888,551.824C215.926,551.824 215.963,551.82 216,551.812C221.129,550.613 225.841,548.452 229.594,544.688C230.998,543.279 232.212,541.71 233.406,540.125C234.215,539.053 235.038,537.806 236.25,537.156C236.494,537.025 236.569,536.713 236.438,536.469C236.301,536.229 235.99,536.144 235.75,536.281Z" style="fill:rgb(75,75,75);fill-rule:nonzero;"/>
        </g>
        <g transform="matrix(2.63133,0,0,2.63133,186.561,-872.11)">
            <path d="M129.781,539.688C129.532,539.562 129.225,539.66 129.094,539.906C128.968,540.155 129.066,540.463 129.312,540.594C130.552,541.209 131.398,542.455 132.25,543.5C133.261,544.74 134.295,545.941 135.469,547.031C139.021,550.332 143.433,552.171 148.125,553.188C148.161,553.196 148.199,553.2 148.236,553.2C148.484,553.2 148.7,553.024 148.75,552.781C148.758,552.745 148.762,552.707 148.762,552.67C148.762,552.422 148.587,552.207 148.344,552.156C143.838,551.186 139.613,549.436 136.188,546.281C134.919,545.114 133.807,543.8 132.719,542.469C131.861,541.419 131.017,540.307 129.781,539.688ZM276.531,565.188C276.009,565.206 275.203,565.258 274.875,565.781C274.441,566.474 275.003,567.293 275.156,567.969C275.417,569.116 274.7,570.76 273.688,571.375C272.404,572.155 270.675,572.225 269.219,572.25C266.524,572.297 263.849,571.928 261.156,571.875C261.148,571.875 261.139,571.874 261.131,571.874C260.855,571.874 260.628,572.099 260.625,572.375C260.619,572.668 260.832,572.932 261.125,572.938C264.174,572.994 267.229,573.454 270.281,573.281C271.614,573.206 273.095,572.959 274.25,572.25C275.597,571.424 276.159,569.876 276.219,568.344C276.237,567.863 276.15,567.666 276,567.219C275.95,567.068 275.693,566.317 275.719,566.312C276.002,566.265 276.276,566.2 276.562,566.188C276.845,566.176 277.126,566.208 277.406,566.25C277.713,566.296 278.042,566.366 278.344,566.438C278.552,566.487 279.05,566.659 279.25,566.719C279.898,566.911 280.554,567.092 281.219,567.219C282.218,567.409 283.222,567.612 284.219,567.812C284.493,567.861 284.759,567.679 284.812,567.406C284.861,567.132 284.679,566.866 284.406,566.812C283.105,566.55 281.783,566.377 280.5,566.031C279.207,565.683 277.894,565.138 276.531,565.188ZM94.906,565.375C94.454,565.326 93.976,565.384 93.625,565.438C92.766,565.568 91.957,565.889 91.125,566.125C90.035,566.434 88.888,566.608 87.781,566.844C87.555,566.893 87.393,567.094 87.393,567.325C87.393,567.363 87.397,567.401 87.406,567.438C87.464,567.709 87.728,567.901 88,567.844C89.13,567.604 90.294,567.407 91.406,567.094C92.199,566.87 92.964,566.567 93.781,566.438C94.221,566.367 94.684,566.426 95.125,566.5C94.965,567.068 94.66,567.721 94.719,568.312C94.769,568.823 94.803,569.358 94.969,569.844C95.144,570.356 95.344,570.86 95.719,571.25C96.14,571.689 96.751,571.921 97.281,572.219C97.876,572.553 98.741,572.649 99.406,572.719C101.046,572.892 102.706,572.742 104.344,572.625C104.92,572.584 105.486,572.533 106.062,572.5C106.592,572.47 107.126,572.456 107.656,572.438C107.932,572.435 108.157,572.208 108.157,571.932C108.157,571.923 108.156,571.915 108.156,571.906C108.146,571.613 107.918,571.364 107.625,571.375C106.509,571.417 105.394,571.48 104.281,571.562C102.583,571.686 100.823,571.865 99.125,571.625C98.719,571.568 98.147,571.512 97.781,571.312C97.334,571.068 96.831,570.89 96.469,570.531C96.195,570.261 96.053,569.867 95.938,569.5C95.781,569.001 95.633,568.447 95.75,567.938C95.889,567.333 96.415,566.558 96.031,565.938C95.805,565.571 95.359,565.424 94.906,565.375ZM260.281,561.156C258.169,561.409 256.037,561.531 253.969,562.062C252.952,562.324 251.904,562.695 251.062,563.344C250.157,564.041 249.615,565.043 249.875,566.188C249.985,566.673 250.411,567.353 250.125,567.844C249.45,569.003 248.197,569.092 247,569.281C246.283,569.394 245.567,569.527 244.844,569.594C244.184,569.655 243.372,569.727 242.75,569.438C242.093,569.132 241.738,568.217 241.312,567.688C241.128,567.459 240.791,567.441 240.562,567.625C240.334,567.809 240.316,568.147 240.5,568.375C241.064,569.07 241.445,569.99 242.312,570.375C243.124,570.736 244.074,570.736 244.938,570.656C245.684,570.587 246.417,570.431 247.156,570.312C248.136,570.155 249.589,570.037 250.312,569.219C250.571,568.927 250.888,568.661 251.062,568.312C251.207,568.023 251.244,567.698 251.25,567.375C251.27,566.253 250.392,565.563 251.219,564.562C251.359,564.4 251.516,564.253 251.688,564.125C252.661,563.371 253.943,563.081 255.125,562.844C256.869,562.494 258.643,562.368 260.406,562.156C260.643,562.11 260.815,561.901 260.815,561.66C260.815,561.383 260.587,561.155 260.31,561.155C260.301,561.155 260.291,561.155 260.281,561.156ZM108.375,561.781C108.1,561.746 107.879,561.943 107.844,562.219C107.839,562.245 107.837,562.272 107.837,562.299C107.837,562.532 108.017,562.729 108.25,562.75C110.009,562.973 111.813,563.095 113.531,563.562C114.277,563.765 115.049,564.036 115.656,564.531C117.223,565.811 115.473,566.741 116.188,568.25C116.927,569.813 118.679,569.932 120.156,570.188C120.804,570.3 121.465,570.433 122.125,570.438C122.669,570.441 123.25,570.39 123.75,570.156C124.516,569.798 124.827,568.943 125.312,568.312C125.491,568.08 125.449,567.743 125.219,567.562C124.987,567.383 124.65,567.426 124.469,567.656C124.117,568.118 123.835,568.911 123.281,569.188C122.604,569.525 121.646,569.357 120.938,569.25C119.67,569.059 117.813,569.076 117.094,567.781C116.827,567.301 117.317,566.476 117.375,565.969C117.491,564.949 116.799,564.039 116,563.5C113.832,562.037 110.888,562.098 108.375,561.781Z" style="fill:rgb(75,75,75);fill-rule:nonzero;"/>
        </g>
        <g transform="matrix(2.63133,0,0,2.63133,186.561,-872.11)">
            <path d="M190.807,540.201C190.807,540.201 185.46,545.303 183.83,548.366C182.201,551.429 184.29,552.454 184.29,552.454L195.458,553.388L200.33,546.527M167.475,543.275C167.475,543.275 172.442,547.662 173.955,550.296C175.468,552.93 173.528,553.811 173.528,553.811L163.154,554.614L158.628,548.715" style="fill:none;fill-rule:nonzero;stroke:rgb(75,75,75);stroke-width:1px;"/>
        </g>
    </g>
</svg>
