<svg xmlns="http://www.w3.org/2000/svg" xml:space="preserve" style="fill-rule:evenodd;clip-rule:evenodd;stroke-linecap:round;stroke-linejoin:round;stroke-miterlimit:1.5" viewBox="0 0 1242 2208"><path d="M0 0h1242v2208H0z" style="fill:none"/><path d="M316.724 996.757s19.696 122.893 14.485 221.683c-5.211 98.8 168.546 273.48 168.546 273.48s-74.445-168.69-89.023-231.15c-14.578-62.47 12-306.005 12-306.005l-106.008 41.992ZM496.732 934.765l58-18 94.008 310.005 113.992 156-162-150-104-298.005Z" style="fill:#fff;stroke:#000;stroke-width:1px"/><path d="m614.732 1040.77-73.992 430s-79.945 263.8-110.016 387.99c2.875-1.89 191.36-399 218.008-453.99 26.648-55 98.008-394.01 98.008-394.01l-132.008 30.01ZM798.732 994.765l82.008-34-18.008 308.005s-131.578 396.53-136 411.99c-4.422 15.47 43.563-391.57 62-439.99 18.438-48.43 10-246.005 10-246.005Z" style="fill:#fff;stroke:#000;stroke-width:1px"/><path d="m304.724 984.757 260.008-67.992 316.008 50-238.008 80.005-338.008-62.013ZM564.732 916.765l6-270 312 18 .008 300-318.008-48Z" style="fill:#fff;stroke:#000;stroke-width:.97px" transform="matrix(1.03137 0 0 1.03842 -29.114 -34.59)"/><path d="m434.732 988.765 59.992-12.008 110.008 14.008-63.992 21.995-106.008-23.995ZM478.74 946.765l242 44M774.74 976.765l-230-44" style="fill:none;stroke:#000;stroke-width:1px"/></svg>