<svg xmlns="http://www.w3.org/2000/svg" xml:space="preserve" style="fill-rule:evenodd;clip-rule:evenodd;stroke-linecap:round;stroke-linejoin:round;stroke-miterlimit:1.5" viewBox="0 0 1242 2208"><path d="M0 0h1242v2208H0z" style="fill:none"/><path d="m564.74 918.765 104 274.005 18 224-74.008-220-110-264.005 62.008-14ZM422.74 952.765l-118.008 30s-5.031 211.265 23.992 265.995c29.024 54.72 80.016 272 80.016 272l32-299.99-18-268.005ZM874.732 972.765l26 278.005-72 317.99s-22.633-257.34-10.008-306c12.625-48.67-19.984-267.995-19.984-267.995l75.992-22Z" style="fill:#fff;stroke:#000;stroke-width:1px"/><path d="m744.732 1012.76-62 404.01-142.008 323.99s13.719-282.02 34.008-313.99c20.289-31.98 38-386 38-386l132-28.01Z" style="fill:#fff;stroke:#000;stroke-width:1px"/><path d="m304.724 984.757 260.008-67.992 316.008 50-238.008 80.005-338.008-62.013ZM564.732 916.765l6-270 312 18 .008 300-318.008-48Z" style="fill:#fff;stroke:#000;stroke-width:.97px" transform="matrix(1.03137 0 0 1.03842 -29.114 -34.59)"/><path d="m434.732 988.765 59.992-12.008 110.008 14.008-63.992 21.995-106.008-23.995ZM478.74 946.765l242 44M774.74 976.765l-230-44" style="fill:none;stroke:#000;stroke-width:1px"/></svg>