<svg xmlns="http://www.w3.org/2000/svg" xml:space="preserve" style="fill-rule:evenodd;clip-rule:evenodd;stroke-linecap:round;stroke-linejoin:round;stroke-miterlimit:1.5" viewBox="0 0 1242 2208"><path d="M0 0h1242v2208H0z" style="fill:none"/><path d="M562.732 916.765 662.74 1144.77l-38.016 259.99-51.992-247.99-68.008-226.013 58.008-13.992ZM418.732 958.765l50.008 260.005-118 250s-10.195-197.71 5.992-228c16.188-30.3-52-260.005-52-260.005l114-22Z" style="fill:#fff;stroke:#000;stroke-width:1px"/><path d="M618.732 1040.77s-13.844 344.48 8.008 358c21.851 13.51 44 215.99 44 215.99s44.07-286.28 37.984-304c-6.086-17.73 38.016-298 38.016-298l-128.008 28.01ZM802.74 992.765l70-28 70 242.005-18.016 243.99s-49.976-164.13-49.984-217.99c-.008-53.87-72-240.005-72-240.005Z" style="fill:#fff;stroke:#000;stroke-width:1px"/><path d="m304.724 984.757 260.008-67.992 316.008 50-238.008 80.005-338.008-62.013ZM564.732 916.765l6-270 312 18 .008 300-318.008-48Z" style="fill:#fff;stroke:#000;stroke-width:.97px" transform="matrix(1.03137 0 0 1.03842 -29.114 -34.59)"/><path d="m434.732 988.765 59.992-12.008 110.008 14.008-63.992 21.995-106.008-23.995ZM478.74 946.765l242 44M774.74 976.765l-230-44" style="fill:none;stroke:#000;stroke-width:1px"/></svg>