<svg xmlns="http://www.w3.org/2000/svg" xml:space="preserve" style="fill-rule:evenodd;clip-rule:evenodd;stroke-linecap:round;stroke-linejoin:round;stroke-miterlimit:1.5" viewBox="0 0 1242 2208"><path d="M0 0h1242v2208H0z" style="fill:none"/><path d="m560.732 914.765 158 214.005-130 206s34.727-163.25 29.992-194.01c-4.734-30.77-135.992-203.995-135.992-203.995l78-22ZM420.732 958.765l86 224.005-168 240s13.859-195.87 38.008-230c24.148-34.15-68.016-210.013-68.016-210.013l112.008-23.992Z" style="fill:#fff;stroke:#000;stroke-width:1px"/><path d="m622.74 1040.77 121.984-26.01 22.016 270.01 43.992 255.99s-145-156.68-132-217.99c13-61.32-55.992-282-55.992-282ZM798.732 992.765l74.008-30 114 212.005s20.99 118.07 22.51 178.76c.46 18.38-80.518-188.76-80.518-188.76l-130-172.005Z" style="fill:#fff;stroke:#000;stroke-width:1px"/><path d="m304.724 984.757 260.008-67.992 316.008 50-238.008 80.005-338.008-62.013ZM564.732 916.765l6-270 312 18 .008 300-318.008-48Z" style="fill:#fff;stroke:#000;stroke-width:.97px" transform="matrix(1.03137 0 0 1.03842 -29.114 -34.59)"/><path d="m434.732 988.765 59.992-12.008 110.008 14.008-63.992 21.995-106.008-23.995ZM478.74 946.765l242 44M774.74 976.765l-230-44" style="fill:none;stroke:#000;stroke-width:1px"/></svg>